<svg xmlns="http://www.w3.org/2000/svg" viewBox="0 0 243.42 243.43"><defs><style>.cls-1{fill:#485fab;}.cls-2{fill:#fff;}</style></defs><g id="Layer_2" data-name="Layer 2"><g id="Layer_1-2" data-name="Layer 1"><path class="cls-1" d="M243.42,35.14V208.29a35.24,35.24,0,0,1-35.14,35.14H35.14A35.24,35.24,0,0,1,0,208.29V83.39A43.3,43.3,0,0,1,12.69,52.76L52.77,12.68A43.33,43.33,0,0,1,83.4,0H208.28A35.24,35.24,0,0,1,243.42,35.14Z"/><path class="cls-2" d="M33.45,153.84,58.1,89.58h7.8l24.73,64.26H82.3l-6.5-17.2H48l-6.14,17.2Zm17-24H73.34l-10.4-28.19a10.73,10.73,0,0,1-.49-1.75c-.15-.71-.32-1.56-.5-2.55h-.18c-.14.9-.3,1.7-.47,2.42a12.89,12.89,0,0,1-.56,1.88Z"/><path class="cls-2" d="M148.4,153.84h-7.53v-29.3H107.62v29.3h-7.53V89.58h7.53v28.19h33.25V89.58h7.53Z"/><path class="cls-2" d="M210,153.84H199.48l-24.83-29.39c-.44-.57-.81-1-1.09-1.42s-.49-.64-.61-.82h-.18v31.63h-7.53V89.58h7.53v30.21H173c.21-.33.46-.68.74-1.06s.61-.75,1-1.14l24-28H208l-27.56,30.83Z"/></g></g></svg>