<svg xmlns="http://www.w3.org/2000/svg" viewBox="0 0 243.42 243.43"><defs><style>.cls-1{fill:#485fab;}.cls-2{fill:#fff;}</style></defs><g id="Layer_2" data-name="Layer 2"><g id="Layer_1-2" data-name="Layer 1"><path class="cls-1" d="M243.42,35.14V208.29a35.24,35.24,0,0,1-35.14,35.14H35.14A35.24,35.24,0,0,1,0,208.29V83.39A43.3,43.3,0,0,1,12.69,52.76L52.77,12.68A43.33,43.33,0,0,1,83.4,0H208.28A35.24,35.24,0,0,1,243.42,35.14Z"/><path class="cls-2" d="M65.75,184.61,114,58.82h15.26l48.42,125.79H161.36l-12.72-33.69H94.17l-12,33.69Zm33.33-46.93h44.73L123.46,82.51a20.89,20.89,0,0,1-1-3.43c-.29-1.4-.61-3.07-1-5h-.35c-.29,1.76-.6,3.34-.92,4.74a27,27,0,0,1-1.09,3.69Z"/></g></g></svg>