<svg xmlns="http://www.w3.org/2000/svg" xmlns:xlink="http://www.w3.org/1999/xlink" viewBox="0 0 379.13 393.57"><defs><style>.cls-1{fill:#2d2d2d;}.cls-2{fill:#444545;}.cls-3{fill:#666766;}.cls-4{fill:url(#New_Gradient_Swatch);}.cls-5{fill:url(#New_Gradient_Swatch-2);}.cls-6{fill:url(#New_Gradient_Swatch-3);}.cls-7{fill:url(#New_Gradient_Swatch-4);}</style><linearGradient id="New_Gradient_Swatch" x1="-17.03" y1="-8.92" x2="433.83" y2="411.08" gradientUnits="userSpaceOnUse"><stop offset="0" stop-color="#fff"/><stop offset="1" stop-color="#505050"/></linearGradient><linearGradient id="New_Gradient_Swatch-2" x1="-95.44" y1="75.26" x2="355.41" y2="495.26" xlink:href="#New_Gradient_Swatch"/><linearGradient id="New_Gradient_Swatch-3" x1="64.23" y1="-96.15" x2="515.09" y2="323.85" xlink:href="#New_Gradient_Swatch"/><linearGradient id="New_Gradient_Swatch-4" x1="-13.71" y1="-12.48" x2="437.15" y2="407.52" xlink:href="#New_Gradient_Swatch"/></defs><g id="Layer_2" data-name="Layer 2"><g id="Layer_1-2" data-name="Layer 1"><rect class="cls-1" y="14.43" width="379.13" height="379.13" rx="28.7"/><rect class="cls-2" width="379.13" height="379.13" rx="28.7"/><rect class="cls-3" x="30.36" y="36.13" width="190.89" height="190.89" rx="21.61"/><rect class="cls-3" x="29.2" y="248.63" width="216.27" height="101.8" rx="21.61"/><rect class="cls-3" x="250.97" y="36.13" width="99.46" height="190.89" rx="21.61"/><rect class="cls-3" x="275.57" y="248.63" width="75.36" height="101.8" rx="21.61"/><rect class="cls-4" x="30.36" y="28.7" width="190.89" height="190.89" rx="21.61"/><rect class="cls-5" x="29.2" y="241.2" width="216.27" height="101.8" rx="21.61"/><rect class="cls-6" x="250.97" y="28.7" width="99.46" height="190.89" rx="21.61"/><rect class="cls-7" x="275.57" y="241.2" width="75.36" height="101.8" rx="21.61"/></g></g></svg>